<svg width="755" height="146" viewBox="0 0 755 146" fill="none" xmlns="http://www.w3.org/2000/svg">
<path d="M706.444 50.8741C709.3 47.0407 716.584 43.2072 724.295 43.2072C745.86 43.2072 755 58.6829 755 76.8562V115.758C755 116.184 754.714 116.468 754.286 116.468H740.29C739.862 116.468 739.576 116.184 739.576 115.758V76.8562C739.576 67.2017 734.864 57.1212 722.153 57.1212C710.586 57.1212 704.873 66.3498 704.873 76.1463V115.758C704.873 116.184 704.588 116.468 704.159 116.468H690.306C689.878 116.468 689.592 116.184 689.592 115.758V45.3369C689.592 44.911 689.878 44.627 690.306 44.627H702.445C703.017 44.627 703.302 44.911 703.445 45.3369L704.873 50.5901C705.159 51.584 706.016 51.442 706.444 50.8741Z" fill="black"/>
<path d="M677.957 80.5477C677.957 102.696 664.675 117.888 642.396 117.888C620.118 117.888 606.979 102.696 606.979 80.5477C606.979 58.257 620.118 43.2072 642.396 43.2072C664.675 43.2072 677.957 58.399 677.957 80.5477ZM662.533 80.5477C662.533 66.4918 655.392 57.1212 642.396 57.1212C629.686 57.1212 622.403 66.4918 622.403 80.5477C622.403 94.6036 629.686 104.116 642.396 104.116C655.392 104.116 662.533 94.6036 662.533 80.5477Z" fill="black"/>
<path d="M594.674 116.469H580.821C580.393 116.469 580.107 116.185 580.107 115.759V45.3375C580.107 44.9115 580.393 44.6276 580.821 44.6276H594.674C595.102 44.6276 595.388 44.9115 595.388 45.3375V115.759C595.388 116.185 595.102 116.469 594.674 116.469ZM595.674 36.2508H579.964C579.536 36.2508 579.25 35.9668 579.25 35.5409V19.6393C579.25 19.2133 579.536 18.9294 579.964 18.9294H595.674C596.102 18.9294 596.388 19.2133 596.388 19.6393V35.5409C596.388 35.9668 596.102 36.2508 595.674 36.2508Z" fill="black"/>
<path d="M536.572 57.4055H524.433C524.005 57.4055 523.719 57.1215 523.719 56.6956V45.3373C523.719 44.9113 524.005 44.6274 524.433 44.6274H536.572C537 44.6274 537.286 44.3434 537.286 43.9175V24.7503C537.286 24.3244 537.572 24.0404 538 24.0404H551.996C552.424 24.0404 552.71 24.3244 552.71 24.7503V43.9175C552.71 44.3434 552.995 44.6274 553.424 44.6274H568.419C568.847 44.6274 569.133 44.9113 569.133 45.3373V56.6956C569.133 57.1215 568.847 57.4055 568.419 57.4055H553.424C552.995 57.4055 552.71 57.6894 552.71 58.1154V96.8756C552.71 100.425 554.852 102.697 559.136 102.697H568.419C568.847 102.697 569.133 102.981 569.133 103.407V115.759C569.133 116.185 568.847 116.469 568.419 116.469H557.28C542.856 116.469 537.286 110.648 537.286 96.4497V58.1154C537.286 57.6894 537 57.4055 536.572 57.4055Z" fill="black"/>
<path d="M517.126 116.469H503.274C502.845 116.469 502.56 116.185 502.56 115.759V45.3375C502.56 44.9115 502.845 44.6276 503.274 44.6276H517.126C517.555 44.6276 517.84 44.9115 517.84 45.3375V115.759C517.84 116.185 517.555 116.469 517.126 116.469ZM518.126 36.2508H502.417C501.988 36.2508 501.703 35.9668 501.703 35.5409V19.6393C501.703 19.2133 501.988 18.9294 502.417 18.9294H518.126C518.554 18.9294 518.84 19.2133 518.84 19.6393V35.5409C518.84 35.9668 518.554 36.2508 518.126 36.2508Z" fill="black"/>
<path d="M438.728 50.8741C441.585 47.0407 448.868 43.2072 456.58 43.2072C478.144 43.2072 487.284 58.6829 487.284 76.8562V115.758C487.284 116.184 486.999 116.468 486.57 116.468H472.575C472.146 116.468 471.861 116.184 471.861 115.758V76.8562C471.861 67.2017 467.148 57.1212 454.438 57.1212C442.87 57.1212 437.157 66.3498 437.157 76.1463V115.758C437.157 116.184 436.872 116.468 436.443 116.468H422.591C422.162 116.468 421.877 116.184 421.877 115.758V45.3369C421.877 44.911 422.162 44.627 422.591 44.627H434.73C435.301 44.627 435.586 44.911 435.729 45.3369L437.157 50.5901C437.443 51.584 438.3 51.442 438.728 50.8741Z" fill="black"/>
<path d="M337.59 80.5477C337.59 58.399 351.443 43.2072 370.865 43.2072C378.577 43.2072 386.717 46.3308 390.859 50.5901C391.287 51.0161 392.001 51.0161 392.287 50.1642L393.572 45.4789C393.715 44.911 394 44.627 394.572 44.627H406.711C407.139 44.627 407.425 44.911 407.425 45.3369V114.055C407.425 133.222 393.001 146 373.15 146C355.156 146 341.589 135.636 341.017 123.709C341.017 123.283 341.303 122.999 341.731 122.999H355.156C355.584 122.999 356.013 123.283 356.298 123.709C357.726 125.839 361.297 132.086 373.15 132.086C387.288 132.086 392.144 123.141 392.144 114.055V110.647C392.144 110.079 391.43 109.795 390.859 110.363C389.43 111.783 382.433 117.888 370.865 117.888C352.157 117.888 337.59 102.696 337.59 80.5477ZM353.014 80.5477C353.014 94.3196 360.154 104.116 373.007 104.116C385.575 104.116 392.144 95.0295 392.144 80.5477C392.144 66.7757 385.575 57.1212 373.007 57.1212C360.154 57.1212 353.014 66.7757 353.014 80.5477Z" fill="black"/>
<path d="M330.953 80.5477C330.953 102.696 317.671 117.888 295.392 117.888C273.114 117.888 259.975 102.696 259.975 80.5477C259.975 58.257 273.114 43.2072 295.392 43.2072C317.671 43.2072 330.953 58.399 330.953 80.5477ZM315.529 80.5477C315.529 66.4918 308.388 57.1212 295.392 57.1212C282.682 57.1212 275.399 66.4918 275.399 80.5477C275.399 94.6036 282.682 104.116 295.392 104.116C308.388 104.116 315.529 94.6036 315.529 80.5477Z" fill="black"/>
<path d="M211.457 104.116C229.166 104.116 235.45 90.4865 237.163 84.9493C237.306 84.3814 237.735 84.2394 238.163 84.2394H252.587C253.015 84.2394 253.301 84.3814 253.301 84.9493C253.301 92.9001 243.304 117.888 211.457 117.888C180.753 117.888 166.472 97.1595 166.472 67.06C166.472 36.9604 182.181 15.0957 211.457 15.0957C243.019 15.0957 253.301 39.8 253.301 48.1768C253.301 48.6027 253.015 48.8867 252.587 48.8867H238.02C237.592 48.8867 237.306 48.6027 237.163 48.1768C235.307 42.9235 230.023 29.0096 211.457 29.0096C192.892 29.0096 182.467 43.9174 182.467 67.06C182.467 90.0606 192.892 104.116 211.457 104.116Z" fill="black"/>
<path d="M80.8708 58.7249C83.6841 57.1172 87.1623 57.1172 89.9755 58.7249L97.2466 62.8986C97.4788 63.0277 97.7306 63.1294 97.9863 63.1998C98.0375 63.2194 98.0887 63.2311 98.1477 63.239C98.3995 63.2976 98.6552 63.3289 98.907 63.3407H98.9464C98.9779 63.3407 98.9975 63.3407 99.029 63.3289C99.2612 63.3289 99.4933 63.2898 99.7254 63.239C99.7648 63.239 99.8081 63.2272 99.8474 63.2077C100.091 63.1372 100.331 63.0355 100.556 62.9182C100.575 62.9065 100.607 62.8986 100.626 62.8869L115.161 54.5394C116.204 53.9448 116.841 52.8418 116.841 51.6448V34.9537C116.841 33.7568 116.204 32.6498 115.161 32.0591L100.626 23.7116C99.5838 23.117 98.3011 23.117 97.2584 23.7116L82.724 32.0591C82.724 32.0591 82.6847 32.0904 82.665 32.0982C82.4447 32.2273 82.2283 32.3916 82.0473 32.5715C82.0158 32.6028 81.9961 32.6302 81.9647 32.6615C81.8033 32.8336 81.6617 33.0253 81.5319 33.2248C81.5122 33.2561 81.4925 33.2835 81.4728 33.3265C81.3509 33.5495 81.2486 33.7802 81.1777 34.0306C81.1581 34.0814 81.1463 34.1323 81.1384 34.191C81.0794 34.4413 81.0361 34.7034 81.0361 34.9772V43.3247C81.0361 46.544 79.297 49.5481 76.4838 51.1558C73.6705 52.7635 70.1923 52.7635 67.3791 51.1558L60.108 46.9821C59.8758 46.853 59.624 46.7513 59.3683 46.6809C59.3171 46.6613 59.266 46.6496 59.207 46.6418C58.9551 46.5831 58.6994 46.5518 58.4476 46.5401H58.3374C58.0935 46.5401 57.8613 46.5792 57.6292 46.63C57.5898 46.63 57.5466 46.6418 57.519 46.6496C57.2672 46.72 57.0351 46.8217 56.799 46.943C56.7793 46.9547 56.7478 46.9625 56.7282 46.9743L42.1938 55.3218C41.1511 55.9163 40.5137 57.0194 40.5137 58.2164V74.9074C40.5137 76.1044 41.1511 77.2114 42.1938 77.8021L56.7282 86.1496C56.7282 86.1496 56.7793 86.1691 56.799 86.1808C57.0311 86.3021 57.2633 86.4038 57.519 86.4742C57.5584 86.4859 57.6016 86.4938 57.641 86.5055C57.8731 86.5564 58.1053 86.5877 58.3374 86.5955C58.3689 86.5955 58.3886 86.6072 58.42 86.6072H58.4594C58.7112 86.6072 58.9669 86.5681 59.2188 86.5055C59.2699 86.4938 59.3211 86.4742 59.3801 86.4664C59.6319 86.396 59.8758 86.2943 60.1198 86.1652L67.3909 81.9915C70.2042 80.3838 73.6823 80.3838 76.4916 81.9915C79.2931 83.5991 81.044 86.6072 81.044 89.8265V98.174C81.044 98.4439 81.0833 98.706 81.1463 98.9563C81.1581 99.0072 81.1659 99.0658 81.1856 99.1167C81.2564 99.3592 81.3587 99.5978 81.4768 99.8208C81.4964 99.8521 81.5161 99.8795 81.5397 99.9225C81.6617 100.122 81.8034 100.314 81.9765 100.486C82.0079 100.517 82.0276 100.544 82.0591 100.576C82.2401 100.756 82.4526 100.908 82.6768 101.049C82.6965 101.061 82.7162 101.08 82.7358 101.088L97.2702 109.436C97.7857 109.737 98.3719 109.889 98.9503 109.889C99.5287 109.889 100.115 109.737 100.63 109.436L115.165 101.088C116.207 100.494 116.845 99.3905 116.845 98.1935V81.5025C116.845 80.3055 116.207 79.1985 115.165 78.6079L100.63 70.2604C100.63 70.2604 100.579 70.2408 100.56 70.2291C100.327 70.1078 100.095 70.0061 99.8435 69.9357C99.8041 69.9279 99.7727 69.9279 99.7333 69.9162C99.5012 69.8575 99.2572 69.8262 99.0251 69.8262H98.9149C98.6631 69.8262 98.4113 69.8653 98.1555 69.9279C98.1044 69.9396 98.0532 69.9592 98.006 69.967C97.7542 70.0374 97.5103 70.1391 97.2663 70.2682L89.9952 74.442C87.1937 76.0496 83.7038 76.0496 80.8945 74.442C78.093 72.8343 76.3421 69.8262 76.3421 66.6069C76.3421 63.3876 78.0812 60.3834 80.8945 58.7718L80.8827 58.7327L80.8708 58.7249Z" fill="black"/>
<path d="M1.68387 54.5559L16.2183 62.9034C16.7337 63.2046 17.32 63.3572 17.8984 63.3572C18.4767 63.3572 19.063 63.2046 19.5784 62.9034L34.1128 54.5559C34.1128 54.5559 34.1522 54.5246 34.1718 54.5168C34.3961 54.3877 34.6047 54.2234 34.7896 54.0435C34.8211 54.0122 34.8407 53.9848 34.8722 53.9535C35.0335 53.7814 35.1752 53.5898 35.3089 53.3903C35.3286 53.359 35.3483 53.3316 35.368 53.2885C35.4899 53.0656 35.5922 52.8348 35.6631 52.5845C35.6827 52.5336 35.6945 52.4828 35.7024 52.4241C35.7614 52.1737 35.8047 51.9116 35.8047 51.6417V43.2943C35.8047 40.075 37.5438 37.0708 40.357 35.4631C43.1703 33.8554 46.6485 33.8554 49.4617 35.4631L56.7328 39.6369C56.965 39.7659 57.2168 39.8676 57.4725 39.9381C57.5237 39.9576 57.5748 39.9693 57.6339 39.9772C57.8857 40.0358 58.1296 40.0671 58.3932 40.0789H58.4326C58.4641 40.0789 58.4837 40.0671 58.5152 40.0671C58.7473 40.0671 58.9795 40.028 59.2116 39.9772C59.251 39.9772 59.2943 39.9654 59.3336 39.9459C59.5854 39.8755 59.8176 39.7738 60.0536 39.6525C60.0733 39.6447 60.1048 39.6329 60.1244 39.6212L74.6589 31.2737C75.7015 30.6791 76.3389 29.5761 76.3389 28.3791V11.688C76.3389 10.4911 75.7015 9.38407 74.6589 8.79341L60.1244 0.445929C59.0818 -0.148643 57.7991 -0.148643 56.7564 0.445929L42.222 8.79341C42.222 8.79341 42.1827 8.82471 42.163 8.83253C41.9427 8.96161 41.7302 9.1259 41.5453 9.30584C41.5138 9.33713 41.4941 9.36452 41.4627 9.39581C41.3013 9.56792 41.1597 9.75959 41.0259 9.95909C41.0062 9.99038 40.9866 10.0178 40.9669 10.0608C40.8449 10.2838 40.7426 10.5145 40.6718 10.7649C40.6521 10.8157 40.6403 10.8666 40.6325 10.9253C40.5695 11.1756 40.5302 11.4377 40.5302 11.7115V20.059C40.5302 23.2783 38.7911 26.2824 35.9778 27.8941C33.1764 29.5017 29.6864 29.5017 26.8732 27.8941L19.602 23.7203C19.3699 23.5912 19.1181 23.4895 18.8623 23.4191C18.8112 23.3996 18.76 23.3878 18.701 23.38C18.4492 23.3213 18.1934 23.29 17.9416 23.2783H17.8315C17.5875 23.2783 17.3554 23.3174 17.1232 23.3683C17.0839 23.3683 17.0406 23.38 17.0131 23.3878C16.7613 23.4582 16.5291 23.5599 16.293 23.6812C16.2734 23.6929 16.2419 23.7008 16.2222 23.7125L1.68781 32.06C0.645141 32.6545 0.00773591 33.7576 0.00773591 34.9546V51.6457C0.00773591 52.8426 0.645141 53.9496 1.68781 54.5403V54.5598L1.68387 54.5559Z" fill="black"/>
<path d="M74.6393 101.816L60.1049 93.4689C60.1049 93.4689 60.0538 93.4493 60.0341 93.4376C59.8019 93.3163 59.5698 93.2185 59.3141 93.1481C59.2747 93.1364 59.2314 93.1286 59.1921 93.1168C58.9599 93.066 58.7278 93.0268 58.4839 93.0268H58.3737C58.1219 93.0268 57.8661 93.066 57.6143 93.1285C57.5632 93.1403 57.512 93.1598 57.4609 93.1677C57.2091 93.2381 56.9651 93.3398 56.7212 93.4689L49.45 97.6426C46.6486 99.2503 43.1586 99.2503 40.3572 97.6426C37.5439 96.0349 35.8048 93.0268 35.8048 89.8075V81.4601C35.8048 81.1902 35.7655 80.9281 35.7025 80.6738C35.6947 80.623 35.6829 80.5643 35.6632 80.5134C35.5924 80.2709 35.4901 80.0323 35.3681 79.8093C35.3484 79.778 35.3287 79.7507 35.3091 79.7076C35.1871 79.5081 35.0455 79.3165 34.8723 79.1444C34.8409 79.1131 34.8212 79.0857 34.7936 79.0544C34.6127 78.8745 34.4002 78.7219 34.1759 78.5811C34.1562 78.5693 34.1366 78.5498 34.1169 78.542L19.5825 70.1945C18.5398 69.5999 17.2571 69.5999 16.2145 70.1945L1.68007 78.542C0.637405 79.1365 0 80.2396 0 81.4366V98.1276C0 99.3246 0.637405 100.432 1.68007 101.022L16.2145 109.37C16.2145 109.37 16.2656 109.389 16.2853 109.401C16.5174 109.522 16.7496 109.62 16.9935 109.691C17.0329 109.702 17.0762 109.71 17.1155 109.722C17.3476 109.773 17.5719 109.804 17.8119 109.812C17.8434 109.812 17.8709 109.82 17.8945 109.82H17.9339C18.1857 109.82 18.4415 109.78 18.6815 109.718C18.7326 109.706 18.7916 109.687 18.8428 109.679C19.0946 109.608 19.3385 109.507 19.5825 109.378L26.8536 105.204C29.6669 103.596 33.1451 103.596 35.9583 105.204C38.7597 106.812 40.5106 109.82 40.5106 113.039V121.386C40.5106 121.656 40.55 121.918 40.6129 122.173C40.6247 122.223 40.6326 122.282 40.6523 122.333C40.7231 122.576 40.8254 122.814 40.9474 123.037C40.967 123.068 40.9867 123.096 41.0064 123.139C41.1284 123.338 41.27 123.53 41.4431 123.702C41.4746 123.733 41.4943 123.761 41.5218 123.792C41.7028 123.972 41.9153 124.125 42.1395 124.265C42.1592 124.277 42.1789 124.297 42.2025 124.304L56.7369 132.652C57.2523 132.953 57.8386 133.106 58.417 133.106C58.9954 133.106 59.5816 132.953 60.097 132.652L74.6314 124.304C75.6741 123.71 76.3115 122.607 76.3115 121.41V104.719C76.3115 103.522 75.6741 102.415 74.6314 101.824L74.6393 101.816Z" fill="black"/>
</svg>
